<svg width="1152" height="700" viewBox="0 0 1152 700" fill="none" xmlns="http://www.w3.org/2000/svg">
<rect width="1152" height="700" fill="white"/>
<g clip-path="url(#clip0)">
<path d="M1047.06 272.606C1155.34 272.606 1243.11 190.986 1243.11 90.3029C1243.11 -10.3802 1155.34 -92 1047.06 -92C938.778 -92 851 -10.3802 851 90.3029C851 190.986 938.778 272.606 1047.06 272.606Z" fill="#EEEEEE"/>
<path d="M576.057 882.606C684.337 882.606 772.115 800.986 772.115 700.303C772.115 599.62 684.337 518 576.057 518C467.778 518 380 599.62 380 700.303C380 800.986 467.778 882.606 576.057 882.606Z" fill="#EEEEEE"/>
<path d="M0.057373 426.606C108.337 426.606 196.115 344.986 196.115 244.303C196.115 143.62 108.337 62 0.057373 62C-108.222 62 -196 143.62 -196 244.303C-196 344.986 -108.222 426.606 0.057373 426.606Z" fill="#EEEEEE"/>
</g>
<defs>
<clipPath id="clip0">
<rect width="1152" height="700" fill="white"/>
</clipPath>
</defs>
</svg>
